<mxfile host="Electron" modified="2023-10-18T04:37:36.044Z" agent="Mozilla/5.0 (X11; Linux x86_64) AppleWebKit/537.36 (KHTML, like Gecko) draw.io/21.5.0 Chrome/112.0.5615.204 Electron/24.5.1 Safari/537.36" etag="0R5QZDgGH_eli1iESaKL" version="21.5.0" type="device">
  <diagram name="Page-1" id="IW_oSJNL5YYZl4O8NQYL">
    <mxGraphModel dx="783" dy="511" grid="1" gridSize="10" guides="1" tooltips="1" connect="1" arrows="1" fold="1" page="1" pageScale="1" pageWidth="850" pageHeight="1100" math="1" shadow="0">
      <root>
        <mxCell id="0" />
        <mxCell id="1" parent="0" />
        <mxCell id="uUJFxHH4b_m9CaUNY9jW-165" value="" style="ellipse;whiteSpace=wrap;html=1;fillColor=none;strokeWidth=5;strokeColor=#CCCC00;" vertex="1" parent="1">
          <mxGeometry x="390" y="350" width="80" height="80" as="geometry" />
        </mxCell>
        <mxCell id="uUJFxHH4b_m9CaUNY9jW-164" value="" style="ellipse;whiteSpace=wrap;html=1;fillColor=none;strokeWidth=5;strokeColor=#CCCC00;" vertex="1" parent="1">
          <mxGeometry x="90" y="350" width="80" height="80" as="geometry" />
        </mxCell>
        <mxCell id="uUJFxHH4b_m9CaUNY9jW-160" value="" style="ellipse;whiteSpace=wrap;html=1;fillColor=none;strokeWidth=5;strokeColor=#CCCC00;" vertex="1" parent="1">
          <mxGeometry x="90" y="50" width="80" height="80" as="geometry" />
        </mxCell>
        <mxCell id="uUJFxHH4b_m9CaUNY9jW-7" style="rounded=0;orthogonalLoop=1;jettySize=auto;html=1;endArrow=none;endFill=0;strokeWidth=5;strokeColor=#CCCC00;" edge="1" parent="1" source="uUJFxHH4b_m9CaUNY9jW-1" target="uUJFxHH4b_m9CaUNY9jW-3">
          <mxGeometry relative="1" as="geometry" />
        </mxCell>
        <mxCell id="uUJFxHH4b_m9CaUNY9jW-8" style="rounded=0;orthogonalLoop=1;jettySize=auto;html=1;endArrow=none;endFill=0;strokeWidth=5;strokeColor=#CCCC00;" edge="1" parent="1" source="uUJFxHH4b_m9CaUNY9jW-3" target="uUJFxHH4b_m9CaUNY9jW-4">
          <mxGeometry relative="1" as="geometry">
            <mxPoint x="178" y="376" as="sourcePoint" />
            <mxPoint x="322" y="484" as="targetPoint" />
          </mxGeometry>
        </mxCell>
        <mxCell id="uUJFxHH4b_m9CaUNY9jW-9" style="rounded=0;orthogonalLoop=1;jettySize=auto;html=1;endArrow=none;endFill=0;strokeWidth=5;strokeColor=#CCCC00;" edge="1" parent="1" source="uUJFxHH4b_m9CaUNY9jW-5" target="uUJFxHH4b_m9CaUNY9jW-4">
          <mxGeometry relative="1" as="geometry">
            <mxPoint x="338" y="484" as="sourcePoint" />
            <mxPoint x="482" y="376" as="targetPoint" />
          </mxGeometry>
        </mxCell>
        <mxCell id="uUJFxHH4b_m9CaUNY9jW-10" style="rounded=0;orthogonalLoop=1;jettySize=auto;html=1;endArrow=none;endFill=0;strokeWidth=5;strokeColor=#CCCC00;" edge="1" parent="1" source="uUJFxHH4b_m9CaUNY9jW-1" target="uUJFxHH4b_m9CaUNY9jW-5">
          <mxGeometry relative="1" as="geometry">
            <mxPoint x="387.59256602363666" y="633.4920862654544" as="sourcePoint" />
            <mxPoint x="492" y="380" as="targetPoint" />
          </mxGeometry>
        </mxCell>
        <mxCell id="uUJFxHH4b_m9CaUNY9jW-14" value="" style="endArrow=none;html=1;rounded=0;strokeWidth=5;" edge="1" parent="1">
          <mxGeometry width="50" height="50" relative="1" as="geometry">
            <mxPoint x="270" y="350" as="sourcePoint" />
            <mxPoint x="270" y="370" as="targetPoint" />
            <Array as="points">
              <mxPoint x="280" y="360" />
            </Array>
          </mxGeometry>
        </mxCell>
        <mxCell id="uUJFxHH4b_m9CaUNY9jW-17" value="&lt;font style=&quot;font-size: 24px;&quot;&gt;1&lt;/font&gt;" style="text;html=1;strokeColor=none;fillColor=none;align=center;verticalAlign=middle;whiteSpace=wrap;rounded=0;" vertex="1" parent="1">
          <mxGeometry x="120" y="360" width="40" height="40" as="geometry" />
        </mxCell>
        <mxCell id="uUJFxHH4b_m9CaUNY9jW-150" style="rounded=0;orthogonalLoop=1;jettySize=auto;html=1;endArrow=none;endFill=0;strokeWidth=5;strokeColor=#CCCC00;" edge="1" parent="1" source="uUJFxHH4b_m9CaUNY9jW-1" target="uUJFxHH4b_m9CaUNY9jW-4">
          <mxGeometry relative="1" as="geometry">
            <mxPoint x="170" y="360" as="sourcePoint" />
            <mxPoint x="170" y="140" as="targetPoint" />
          </mxGeometry>
        </mxCell>
        <mxCell id="uUJFxHH4b_m9CaUNY9jW-151" style="rounded=0;orthogonalLoop=1;jettySize=auto;html=1;endArrow=none;endFill=0;strokeWidth=5;strokeColor=#CCCC00;" edge="1" parent="1" source="uUJFxHH4b_m9CaUNY9jW-5" target="uUJFxHH4b_m9CaUNY9jW-3">
          <mxGeometry relative="1" as="geometry">
            <mxPoint x="177" y="363" as="sourcePoint" />
            <mxPoint x="403" y="137" as="targetPoint" />
          </mxGeometry>
        </mxCell>
        <mxCell id="uUJFxHH4b_m9CaUNY9jW-152" value="&lt;font style=&quot;font-size: 24px;&quot;&gt;2&lt;/font&gt;" style="text;html=1;strokeColor=none;fillColor=none;align=center;verticalAlign=middle;whiteSpace=wrap;rounded=0;" vertex="1" parent="1">
          <mxGeometry x="400" y="360" width="40" height="40" as="geometry" />
        </mxCell>
        <mxCell id="uUJFxHH4b_m9CaUNY9jW-153" value="&lt;font style=&quot;font-size: 24px;&quot;&gt;4&lt;/font&gt;" style="text;html=1;strokeColor=none;fillColor=none;align=center;verticalAlign=middle;whiteSpace=wrap;rounded=0;" vertex="1" parent="1">
          <mxGeometry x="400" y="80" width="40" height="40" as="geometry" />
        </mxCell>
        <mxCell id="uUJFxHH4b_m9CaUNY9jW-154" value="&lt;font style=&quot;font-size: 24px;&quot;&gt;3&lt;/font&gt;" style="text;html=1;strokeColor=none;fillColor=none;align=center;verticalAlign=middle;whiteSpace=wrap;rounded=0;" vertex="1" parent="1">
          <mxGeometry x="120" y="80" width="40" height="40" as="geometry" />
        </mxCell>
        <mxCell id="uUJFxHH4b_m9CaUNY9jW-1" value="" style="ellipse;whiteSpace=wrap;html=1;strokeWidth=5;" vertex="1" parent="1">
          <mxGeometry x="150" y="350" width="20" height="20" as="geometry" />
        </mxCell>
        <mxCell id="uUJFxHH4b_m9CaUNY9jW-3" value="" style="ellipse;whiteSpace=wrap;html=1;strokeWidth=5;fillColor=default;" vertex="1" parent="1">
          <mxGeometry x="390" y="350" width="20" height="20" as="geometry" />
        </mxCell>
        <mxCell id="uUJFxHH4b_m9CaUNY9jW-5" value="" style="ellipse;whiteSpace=wrap;html=1;strokeWidth=5;" vertex="1" parent="1">
          <mxGeometry x="150" y="110" width="20" height="20" as="geometry" />
        </mxCell>
        <mxCell id="uUJFxHH4b_m9CaUNY9jW-155" value="" style="endArrow=none;html=1;rounded=0;strokeWidth=5;" edge="1" parent="1">
          <mxGeometry width="50" height="50" relative="1" as="geometry">
            <mxPoint x="270" y="110" as="sourcePoint" />
            <mxPoint x="270" y="130" as="targetPoint" />
            <Array as="points">
              <mxPoint x="280" y="120" />
            </Array>
          </mxGeometry>
        </mxCell>
        <mxCell id="uUJFxHH4b_m9CaUNY9jW-156" value="" style="endArrow=none;html=1;rounded=0;strokeWidth=5;" edge="1" parent="1">
          <mxGeometry width="50" height="50" relative="1" as="geometry">
            <mxPoint x="410" y="250" as="sourcePoint" />
            <mxPoint x="390" y="250" as="targetPoint" />
            <Array as="points">
              <mxPoint x="400" y="240" />
            </Array>
          </mxGeometry>
        </mxCell>
        <mxCell id="uUJFxHH4b_m9CaUNY9jW-157" value="" style="endArrow=none;html=1;rounded=0;strokeWidth=5;" edge="1" parent="1">
          <mxGeometry width="50" height="50" relative="1" as="geometry">
            <mxPoint x="170" y="250" as="sourcePoint" />
            <mxPoint x="150" y="250" as="targetPoint" />
            <Array as="points">
              <mxPoint x="160" y="240" />
            </Array>
          </mxGeometry>
        </mxCell>
        <mxCell id="uUJFxHH4b_m9CaUNY9jW-158" value="" style="endArrow=none;html=1;rounded=0;strokeWidth=5;" edge="1" parent="1">
          <mxGeometry width="50" height="50" relative="1" as="geometry">
            <mxPoint x="232" y="180" as="sourcePoint" />
            <mxPoint x="220" y="193" as="targetPoint" />
            <Array as="points">
              <mxPoint x="220" y="180" />
            </Array>
          </mxGeometry>
        </mxCell>
        <mxCell id="uUJFxHH4b_m9CaUNY9jW-159" value="" style="endArrow=none;html=1;rounded=0;strokeWidth=5;" edge="1" parent="1">
          <mxGeometry width="50" height="50" relative="1" as="geometry">
            <mxPoint x="327" y="180" as="sourcePoint" />
            <mxPoint x="340" y="193" as="targetPoint" />
            <Array as="points">
              <mxPoint x="340" y="180" />
            </Array>
          </mxGeometry>
        </mxCell>
        <mxCell id="uUJFxHH4b_m9CaUNY9jW-161" value="" style="endArrow=none;html=1;rounded=0;strokeWidth=5;" edge="1" parent="1">
          <mxGeometry width="50" height="50" relative="1" as="geometry">
            <mxPoint x="125" y="40" as="sourcePoint" />
            <mxPoint x="125" y="60" as="targetPoint" />
            <Array as="points">
              <mxPoint x="135" y="50" />
            </Array>
          </mxGeometry>
        </mxCell>
        <mxCell id="uUJFxHH4b_m9CaUNY9jW-162" value="" style="ellipse;whiteSpace=wrap;html=1;fillColor=none;strokeWidth=5;strokeColor=#CCCC00;" vertex="1" parent="1">
          <mxGeometry x="390" y="50" width="80" height="80" as="geometry" />
        </mxCell>
        <mxCell id="uUJFxHH4b_m9CaUNY9jW-163" value="" style="endArrow=none;html=1;rounded=0;strokeWidth=5;" edge="1" parent="1">
          <mxGeometry width="50" height="50" relative="1" as="geometry">
            <mxPoint x="425" y="40" as="sourcePoint" />
            <mxPoint x="425" y="60" as="targetPoint" />
            <Array as="points">
              <mxPoint x="435" y="50" />
            </Array>
          </mxGeometry>
        </mxCell>
        <mxCell id="uUJFxHH4b_m9CaUNY9jW-4" value="" style="ellipse;whiteSpace=wrap;html=1;strokeWidth=5;" vertex="1" parent="1">
          <mxGeometry x="390" y="110" width="20" height="20" as="geometry" />
        </mxCell>
        <mxCell id="uUJFxHH4b_m9CaUNY9jW-166" value="" style="endArrow=none;html=1;rounded=0;strokeWidth=5;" edge="1" parent="1">
          <mxGeometry width="50" height="50" relative="1" as="geometry">
            <mxPoint x="120" y="340" as="sourcePoint" />
            <mxPoint x="120" y="360" as="targetPoint" />
            <Array as="points">
              <mxPoint x="130" y="350" />
            </Array>
          </mxGeometry>
        </mxCell>
        <mxCell id="uUJFxHH4b_m9CaUNY9jW-167" value="" style="endArrow=none;html=1;rounded=0;strokeWidth=5;" edge="1" parent="1">
          <mxGeometry width="50" height="50" relative="1" as="geometry">
            <mxPoint x="425" y="340" as="sourcePoint" />
            <mxPoint x="425" y="360" as="targetPoint" />
            <Array as="points">
              <mxPoint x="435" y="350" />
            </Array>
          </mxGeometry>
        </mxCell>
        <mxCell id="uUJFxHH4b_m9CaUNY9jW-171" style="rounded=0;orthogonalLoop=1;jettySize=auto;html=1;endArrow=none;endFill=0;strokeWidth=5;strokeColor=#CCCC00;" edge="1" source="uUJFxHH4b_m9CaUNY9jW-182" target="uUJFxHH4b_m9CaUNY9jW-183" parent="1">
          <mxGeometry relative="1" as="geometry" />
        </mxCell>
        <mxCell id="uUJFxHH4b_m9CaUNY9jW-172" style="rounded=0;orthogonalLoop=1;jettySize=auto;html=1;endArrow=none;endFill=0;strokeWidth=5;strokeColor=#CCCC00;" edge="1" source="uUJFxHH4b_m9CaUNY9jW-183" target="uUJFxHH4b_m9CaUNY9jW-193" parent="1">
          <mxGeometry relative="1" as="geometry">
            <mxPoint x="178" y="816" as="sourcePoint" />
            <mxPoint x="322" y="924" as="targetPoint" />
          </mxGeometry>
        </mxCell>
        <mxCell id="uUJFxHH4b_m9CaUNY9jW-173" style="rounded=0;orthogonalLoop=1;jettySize=auto;html=1;endArrow=none;endFill=0;strokeWidth=5;strokeColor=#CCCC00;" edge="1" source="uUJFxHH4b_m9CaUNY9jW-184" target="uUJFxHH4b_m9CaUNY9jW-193" parent="1">
          <mxGeometry relative="1" as="geometry">
            <mxPoint x="338" y="924" as="sourcePoint" />
            <mxPoint x="482" y="816" as="targetPoint" />
          </mxGeometry>
        </mxCell>
        <mxCell id="uUJFxHH4b_m9CaUNY9jW-174" style="rounded=0;orthogonalLoop=1;jettySize=auto;html=1;endArrow=none;endFill=0;strokeWidth=5;strokeColor=#CCCC00;" edge="1" source="uUJFxHH4b_m9CaUNY9jW-182" target="uUJFxHH4b_m9CaUNY9jW-184" parent="1">
          <mxGeometry relative="1" as="geometry">
            <mxPoint x="387.59256602363666" y="1073.4920862654544" as="sourcePoint" />
            <mxPoint x="492" y="820" as="targetPoint" />
          </mxGeometry>
        </mxCell>
        <mxCell id="uUJFxHH4b_m9CaUNY9jW-175" value="" style="endArrow=none;html=1;rounded=0;strokeWidth=5;" edge="1" parent="1">
          <mxGeometry width="50" height="50" relative="1" as="geometry">
            <mxPoint x="270" y="790" as="sourcePoint" />
            <mxPoint x="270" y="810" as="targetPoint" />
            <Array as="points">
              <mxPoint x="280" y="800" />
            </Array>
          </mxGeometry>
        </mxCell>
        <mxCell id="uUJFxHH4b_m9CaUNY9jW-176" value="&lt;font style=&quot;font-size: 24px;&quot;&gt;1&lt;/font&gt;" style="text;html=1;strokeColor=none;fillColor=none;align=center;verticalAlign=middle;whiteSpace=wrap;rounded=0;" vertex="1" parent="1">
          <mxGeometry x="120" y="800" width="40" height="40" as="geometry" />
        </mxCell>
        <mxCell id="uUJFxHH4b_m9CaUNY9jW-177" style="rounded=0;orthogonalLoop=1;jettySize=auto;html=1;endArrow=none;endFill=0;strokeWidth=5;strokeColor=#CCCC00;" edge="1" source="uUJFxHH4b_m9CaUNY9jW-182" target="uUJFxHH4b_m9CaUNY9jW-193" parent="1">
          <mxGeometry relative="1" as="geometry">
            <mxPoint x="170" y="800" as="sourcePoint" />
            <mxPoint x="170" y="580" as="targetPoint" />
          </mxGeometry>
        </mxCell>
        <mxCell id="uUJFxHH4b_m9CaUNY9jW-178" style="rounded=0;orthogonalLoop=1;jettySize=auto;html=1;endArrow=none;endFill=0;strokeWidth=5;strokeColor=#CCCC00;" edge="1" source="uUJFxHH4b_m9CaUNY9jW-184" target="uUJFxHH4b_m9CaUNY9jW-183" parent="1">
          <mxGeometry relative="1" as="geometry">
            <mxPoint x="177" y="803" as="sourcePoint" />
            <mxPoint x="403" y="577" as="targetPoint" />
          </mxGeometry>
        </mxCell>
        <mxCell id="uUJFxHH4b_m9CaUNY9jW-179" value="&lt;font style=&quot;font-size: 24px;&quot;&gt;2&lt;/font&gt;" style="text;html=1;strokeColor=none;fillColor=none;align=center;verticalAlign=middle;whiteSpace=wrap;rounded=0;" vertex="1" parent="1">
          <mxGeometry x="400" y="800" width="40" height="40" as="geometry" />
        </mxCell>
        <mxCell id="uUJFxHH4b_m9CaUNY9jW-180" value="&lt;font style=&quot;font-size: 24px;&quot;&gt;4&lt;/font&gt;" style="text;html=1;strokeColor=none;fillColor=none;align=center;verticalAlign=middle;whiteSpace=wrap;rounded=0;" vertex="1" parent="1">
          <mxGeometry x="400" y="520" width="40" height="40" as="geometry" />
        </mxCell>
        <mxCell id="uUJFxHH4b_m9CaUNY9jW-181" value="&lt;font style=&quot;font-size: 24px;&quot;&gt;3&lt;/font&gt;" style="text;html=1;strokeColor=none;fillColor=none;align=center;verticalAlign=middle;whiteSpace=wrap;rounded=0;" vertex="1" parent="1">
          <mxGeometry x="120" y="520" width="40" height="40" as="geometry" />
        </mxCell>
        <mxCell id="uUJFxHH4b_m9CaUNY9jW-182" value="" style="ellipse;whiteSpace=wrap;html=1;strokeWidth=5;" vertex="1" parent="1">
          <mxGeometry x="150" y="790" width="20" height="20" as="geometry" />
        </mxCell>
        <mxCell id="uUJFxHH4b_m9CaUNY9jW-183" value="" style="ellipse;whiteSpace=wrap;html=1;strokeWidth=5;fillColor=default;" vertex="1" parent="1">
          <mxGeometry x="390" y="790" width="20" height="20" as="geometry" />
        </mxCell>
        <mxCell id="uUJFxHH4b_m9CaUNY9jW-184" value="" style="ellipse;whiteSpace=wrap;html=1;strokeWidth=5;" vertex="1" parent="1">
          <mxGeometry x="150" y="550" width="20" height="20" as="geometry" />
        </mxCell>
        <mxCell id="uUJFxHH4b_m9CaUNY9jW-185" value="" style="endArrow=none;html=1;rounded=0;strokeWidth=5;" edge="1" parent="1">
          <mxGeometry width="50" height="50" relative="1" as="geometry">
            <mxPoint x="270" y="550" as="sourcePoint" />
            <mxPoint x="270" y="570" as="targetPoint" />
            <Array as="points">
              <mxPoint x="280" y="560" />
            </Array>
          </mxGeometry>
        </mxCell>
        <mxCell id="uUJFxHH4b_m9CaUNY9jW-186" value="" style="endArrow=none;html=1;rounded=0;strokeWidth=5;" edge="1" parent="1">
          <mxGeometry width="50" height="50" relative="1" as="geometry">
            <mxPoint x="410" y="690" as="sourcePoint" />
            <mxPoint x="390" y="690" as="targetPoint" />
            <Array as="points">
              <mxPoint x="400" y="680" />
            </Array>
          </mxGeometry>
        </mxCell>
        <mxCell id="uUJFxHH4b_m9CaUNY9jW-187" value="" style="endArrow=none;html=1;rounded=0;strokeWidth=5;" edge="1" parent="1">
          <mxGeometry width="50" height="50" relative="1" as="geometry">
            <mxPoint x="170" y="690" as="sourcePoint" />
            <mxPoint x="150" y="690" as="targetPoint" />
            <Array as="points">
              <mxPoint x="160" y="680" />
            </Array>
          </mxGeometry>
        </mxCell>
        <mxCell id="uUJFxHH4b_m9CaUNY9jW-188" value="" style="endArrow=none;html=1;rounded=0;strokeWidth=5;" edge="1" parent="1">
          <mxGeometry width="50" height="50" relative="1" as="geometry">
            <mxPoint x="232" y="620" as="sourcePoint" />
            <mxPoint x="220" y="633" as="targetPoint" />
            <Array as="points">
              <mxPoint x="220" y="620" />
            </Array>
          </mxGeometry>
        </mxCell>
        <mxCell id="uUJFxHH4b_m9CaUNY9jW-189" value="" style="endArrow=none;html=1;rounded=0;strokeWidth=5;" edge="1" parent="1">
          <mxGeometry width="50" height="50" relative="1" as="geometry">
            <mxPoint x="327" y="620" as="sourcePoint" />
            <mxPoint x="340" y="633" as="targetPoint" />
            <Array as="points">
              <mxPoint x="340" y="620" />
            </Array>
          </mxGeometry>
        </mxCell>
        <mxCell id="uUJFxHH4b_m9CaUNY9jW-193" value="" style="ellipse;whiteSpace=wrap;html=1;strokeWidth=5;" vertex="1" parent="1">
          <mxGeometry x="390" y="550" width="20" height="20" as="geometry" />
        </mxCell>
        <mxCell id="uUJFxHH4b_m9CaUNY9jW-196" style="rounded=0;orthogonalLoop=1;jettySize=auto;html=1;endArrow=none;endFill=0;strokeWidth=5;strokeColor=#CCCC00;" edge="1" source="uUJFxHH4b_m9CaUNY9jW-207" target="uUJFxHH4b_m9CaUNY9jW-208" parent="1">
          <mxGeometry relative="1" as="geometry" />
        </mxCell>
        <mxCell id="uUJFxHH4b_m9CaUNY9jW-197" style="rounded=0;orthogonalLoop=1;jettySize=auto;html=1;endArrow=none;endFill=0;strokeWidth=5;strokeColor=#CCCC00;" edge="1" source="uUJFxHH4b_m9CaUNY9jW-208" target="uUJFxHH4b_m9CaUNY9jW-215" parent="1">
          <mxGeometry relative="1" as="geometry">
            <mxPoint x="178" y="1296" as="sourcePoint" />
            <mxPoint x="322" y="1404" as="targetPoint" />
          </mxGeometry>
        </mxCell>
        <mxCell id="uUJFxHH4b_m9CaUNY9jW-198" style="rounded=0;orthogonalLoop=1;jettySize=auto;html=1;endArrow=none;endFill=0;strokeWidth=5;strokeColor=#CCCC00;" edge="1" source="uUJFxHH4b_m9CaUNY9jW-209" target="uUJFxHH4b_m9CaUNY9jW-215" parent="1">
          <mxGeometry relative="1" as="geometry">
            <mxPoint x="338" y="1404" as="sourcePoint" />
            <mxPoint x="482" y="1296" as="targetPoint" />
          </mxGeometry>
        </mxCell>
        <mxCell id="uUJFxHH4b_m9CaUNY9jW-200" value="" style="endArrow=none;html=1;rounded=0;strokeWidth=5;" edge="1" parent="1">
          <mxGeometry width="50" height="50" relative="1" as="geometry">
            <mxPoint x="270" y="1270" as="sourcePoint" />
            <mxPoint x="270" y="1290" as="targetPoint" />
            <Array as="points">
              <mxPoint x="280" y="1280" />
            </Array>
          </mxGeometry>
        </mxCell>
        <mxCell id="uUJFxHH4b_m9CaUNY9jW-201" value="&lt;font style=&quot;font-size: 24px;&quot;&gt;1&lt;/font&gt;" style="text;html=1;strokeColor=none;fillColor=none;align=center;verticalAlign=middle;whiteSpace=wrap;rounded=0;" vertex="1" parent="1">
          <mxGeometry x="120" y="1280" width="40" height="40" as="geometry" />
        </mxCell>
        <mxCell id="uUJFxHH4b_m9CaUNY9jW-202" style="rounded=0;orthogonalLoop=1;jettySize=auto;html=1;endArrow=none;endFill=0;strokeWidth=5;strokeColor=#CCCC00;" edge="1" source="uUJFxHH4b_m9CaUNY9jW-207" target="uUJFxHH4b_m9CaUNY9jW-215" parent="1">
          <mxGeometry relative="1" as="geometry">
            <mxPoint x="170" y="1280" as="sourcePoint" />
            <mxPoint x="170" y="1060" as="targetPoint" />
          </mxGeometry>
        </mxCell>
        <mxCell id="uUJFxHH4b_m9CaUNY9jW-203" style="rounded=0;orthogonalLoop=1;jettySize=auto;html=1;endArrow=none;endFill=0;strokeWidth=5;strokeColor=#CCCC00;" edge="1" source="uUJFxHH4b_m9CaUNY9jW-209" target="uUJFxHH4b_m9CaUNY9jW-208" parent="1">
          <mxGeometry relative="1" as="geometry">
            <mxPoint x="177" y="1283" as="sourcePoint" />
            <mxPoint x="403" y="1057" as="targetPoint" />
          </mxGeometry>
        </mxCell>
        <mxCell id="uUJFxHH4b_m9CaUNY9jW-204" value="&lt;font style=&quot;font-size: 24px;&quot;&gt;2&lt;/font&gt;" style="text;html=1;strokeColor=none;fillColor=none;align=center;verticalAlign=middle;whiteSpace=wrap;rounded=0;" vertex="1" parent="1">
          <mxGeometry x="400" y="1280" width="40" height="40" as="geometry" />
        </mxCell>
        <mxCell id="uUJFxHH4b_m9CaUNY9jW-205" value="&lt;font style=&quot;font-size: 24px;&quot;&gt;4&lt;/font&gt;" style="text;html=1;strokeColor=none;fillColor=none;align=center;verticalAlign=middle;whiteSpace=wrap;rounded=0;" vertex="1" parent="1">
          <mxGeometry x="400" y="1000" width="40" height="40" as="geometry" />
        </mxCell>
        <mxCell id="uUJFxHH4b_m9CaUNY9jW-206" value="&lt;font style=&quot;font-size: 24px;&quot;&gt;3&lt;/font&gt;" style="text;html=1;strokeColor=none;fillColor=none;align=center;verticalAlign=middle;whiteSpace=wrap;rounded=0;" vertex="1" parent="1">
          <mxGeometry x="120" y="1000" width="40" height="40" as="geometry" />
        </mxCell>
        <mxCell id="uUJFxHH4b_m9CaUNY9jW-207" value="" style="ellipse;whiteSpace=wrap;html=1;strokeWidth=5;" vertex="1" parent="1">
          <mxGeometry x="150" y="1270" width="20" height="20" as="geometry" />
        </mxCell>
        <mxCell id="uUJFxHH4b_m9CaUNY9jW-208" value="" style="ellipse;whiteSpace=wrap;html=1;strokeWidth=5;fillColor=default;" vertex="1" parent="1">
          <mxGeometry x="390" y="1270" width="20" height="20" as="geometry" />
        </mxCell>
        <mxCell id="uUJFxHH4b_m9CaUNY9jW-209" value="" style="ellipse;whiteSpace=wrap;html=1;strokeWidth=5;" vertex="1" parent="1">
          <mxGeometry x="150" y="1030" width="20" height="20" as="geometry" />
        </mxCell>
        <mxCell id="uUJFxHH4b_m9CaUNY9jW-210" value="" style="endArrow=none;html=1;rounded=0;strokeWidth=5;" edge="1" parent="1">
          <mxGeometry width="50" height="50" relative="1" as="geometry">
            <mxPoint x="270" y="1030" as="sourcePoint" />
            <mxPoint x="270" y="1050" as="targetPoint" />
            <Array as="points">
              <mxPoint x="280" y="1040" />
            </Array>
          </mxGeometry>
        </mxCell>
        <mxCell id="uUJFxHH4b_m9CaUNY9jW-211" value="" style="endArrow=none;html=1;rounded=0;strokeWidth=5;" edge="1" parent="1">
          <mxGeometry width="50" height="50" relative="1" as="geometry">
            <mxPoint x="410" y="1170" as="sourcePoint" />
            <mxPoint x="390" y="1170" as="targetPoint" />
            <Array as="points">
              <mxPoint x="400" y="1160" />
            </Array>
          </mxGeometry>
        </mxCell>
        <mxCell id="uUJFxHH4b_m9CaUNY9jW-213" value="" style="endArrow=none;html=1;rounded=0;strokeWidth=5;" edge="1" parent="1">
          <mxGeometry width="50" height="50" relative="1" as="geometry">
            <mxPoint x="232" y="1100" as="sourcePoint" />
            <mxPoint x="220" y="1113" as="targetPoint" />
            <Array as="points">
              <mxPoint x="220" y="1100" />
            </Array>
          </mxGeometry>
        </mxCell>
        <mxCell id="uUJFxHH4b_m9CaUNY9jW-214" value="" style="endArrow=none;html=1;rounded=0;strokeWidth=5;" edge="1" parent="1">
          <mxGeometry width="50" height="50" relative="1" as="geometry">
            <mxPoint x="327" y="1100" as="sourcePoint" />
            <mxPoint x="340" y="1113" as="targetPoint" />
            <Array as="points">
              <mxPoint x="340" y="1100" />
            </Array>
          </mxGeometry>
        </mxCell>
        <mxCell id="uUJFxHH4b_m9CaUNY9jW-215" value="" style="ellipse;whiteSpace=wrap;html=1;strokeWidth=5;" vertex="1" parent="1">
          <mxGeometry x="390" y="1030" width="20" height="20" as="geometry" />
        </mxCell>
        <mxCell id="uUJFxHH4b_m9CaUNY9jW-216" value="&lt;font style=&quot;font-size: 24px;&quot;&gt;&lt;b&gt;(A)&lt;/b&gt;&lt;/font&gt;" style="text;html=1;strokeColor=none;fillColor=none;align=center;verticalAlign=middle;whiteSpace=wrap;rounded=0;" vertex="1" parent="1">
          <mxGeometry x="40" y="1040" width="40" height="40" as="geometry" />
        </mxCell>
        <mxCell id="uUJFxHH4b_m9CaUNY9jW-217" style="rounded=0;orthogonalLoop=1;jettySize=auto;html=1;endArrow=none;endFill=0;strokeWidth=5;strokeColor=#CCCC00;" edge="1" source="uUJFxHH4b_m9CaUNY9jW-227" target="uUJFxHH4b_m9CaUNY9jW-228" parent="1">
          <mxGeometry relative="1" as="geometry" />
        </mxCell>
        <mxCell id="uUJFxHH4b_m9CaUNY9jW-218" style="rounded=0;orthogonalLoop=1;jettySize=auto;html=1;endArrow=none;endFill=0;strokeWidth=5;strokeColor=#CCCC00;" edge="1" source="uUJFxHH4b_m9CaUNY9jW-228" target="uUJFxHH4b_m9CaUNY9jW-234" parent="1">
          <mxGeometry relative="1" as="geometry">
            <mxPoint x="698" y="1296" as="sourcePoint" />
            <mxPoint x="842" y="1404" as="targetPoint" />
          </mxGeometry>
        </mxCell>
        <mxCell id="uUJFxHH4b_m9CaUNY9jW-219" style="rounded=0;orthogonalLoop=1;jettySize=auto;html=1;endArrow=none;endFill=0;strokeWidth=5;strokeColor=#CCCC00;" edge="1" source="uUJFxHH4b_m9CaUNY9jW-229" target="uUJFxHH4b_m9CaUNY9jW-234" parent="1">
          <mxGeometry relative="1" as="geometry">
            <mxPoint x="858" y="1404" as="sourcePoint" />
            <mxPoint x="1002" y="1296" as="targetPoint" />
          </mxGeometry>
        </mxCell>
        <mxCell id="uUJFxHH4b_m9CaUNY9jW-220" value="" style="endArrow=none;html=1;rounded=0;strokeWidth=5;" edge="1" parent="1">
          <mxGeometry width="50" height="50" relative="1" as="geometry">
            <mxPoint x="790" y="1270" as="sourcePoint" />
            <mxPoint x="790" y="1290" as="targetPoint" />
            <Array as="points">
              <mxPoint x="800" y="1280" />
            </Array>
          </mxGeometry>
        </mxCell>
        <mxCell id="uUJFxHH4b_m9CaUNY9jW-221" value="&lt;font style=&quot;font-size: 24px;&quot;&gt;1&lt;/font&gt;" style="text;html=1;strokeColor=none;fillColor=none;align=center;verticalAlign=middle;whiteSpace=wrap;rounded=0;" vertex="1" parent="1">
          <mxGeometry x="640" y="1280" width="40" height="40" as="geometry" />
        </mxCell>
        <mxCell id="uUJFxHH4b_m9CaUNY9jW-223" style="rounded=0;orthogonalLoop=1;jettySize=auto;html=1;endArrow=none;endFill=0;strokeWidth=5;strokeColor=#CCCC00;" edge="1" source="uUJFxHH4b_m9CaUNY9jW-229" target="uUJFxHH4b_m9CaUNY9jW-228" parent="1">
          <mxGeometry relative="1" as="geometry">
            <mxPoint x="697" y="1283" as="sourcePoint" />
            <mxPoint x="923" y="1057" as="targetPoint" />
          </mxGeometry>
        </mxCell>
        <mxCell id="uUJFxHH4b_m9CaUNY9jW-224" value="&lt;font style=&quot;font-size: 24px;&quot;&gt;2&lt;/font&gt;" style="text;html=1;strokeColor=none;fillColor=none;align=center;verticalAlign=middle;whiteSpace=wrap;rounded=0;" vertex="1" parent="1">
          <mxGeometry x="920" y="1280" width="40" height="40" as="geometry" />
        </mxCell>
        <mxCell id="uUJFxHH4b_m9CaUNY9jW-225" value="&lt;font style=&quot;font-size: 24px;&quot;&gt;4&lt;/font&gt;" style="text;html=1;strokeColor=none;fillColor=none;align=center;verticalAlign=middle;whiteSpace=wrap;rounded=0;" vertex="1" parent="1">
          <mxGeometry x="920" y="1000" width="40" height="40" as="geometry" />
        </mxCell>
        <mxCell id="uUJFxHH4b_m9CaUNY9jW-226" value="&lt;font style=&quot;font-size: 24px;&quot;&gt;3&lt;/font&gt;" style="text;html=1;strokeColor=none;fillColor=none;align=center;verticalAlign=middle;whiteSpace=wrap;rounded=0;" vertex="1" parent="1">
          <mxGeometry x="640" y="1000" width="40" height="40" as="geometry" />
        </mxCell>
        <mxCell id="uUJFxHH4b_m9CaUNY9jW-227" value="" style="ellipse;whiteSpace=wrap;html=1;strokeWidth=5;" vertex="1" parent="1">
          <mxGeometry x="670" y="1270" width="20" height="20" as="geometry" />
        </mxCell>
        <mxCell id="uUJFxHH4b_m9CaUNY9jW-228" value="" style="ellipse;whiteSpace=wrap;html=1;strokeWidth=5;fillColor=default;" vertex="1" parent="1">
          <mxGeometry x="910" y="1270" width="20" height="20" as="geometry" />
        </mxCell>
        <mxCell id="uUJFxHH4b_m9CaUNY9jW-229" value="" style="ellipse;whiteSpace=wrap;html=1;strokeWidth=5;" vertex="1" parent="1">
          <mxGeometry x="670" y="1030" width="20" height="20" as="geometry" />
        </mxCell>
        <mxCell id="uUJFxHH4b_m9CaUNY9jW-230" value="" style="endArrow=none;html=1;rounded=0;strokeWidth=5;" edge="1" parent="1">
          <mxGeometry width="50" height="50" relative="1" as="geometry">
            <mxPoint x="790" y="1030" as="sourcePoint" />
            <mxPoint x="790" y="1050" as="targetPoint" />
            <Array as="points">
              <mxPoint x="800" y="1040" />
            </Array>
          </mxGeometry>
        </mxCell>
        <mxCell id="uUJFxHH4b_m9CaUNY9jW-231" value="" style="endArrow=none;html=1;rounded=0;strokeWidth=5;" edge="1" parent="1">
          <mxGeometry width="50" height="50" relative="1" as="geometry">
            <mxPoint x="930" y="1170" as="sourcePoint" />
            <mxPoint x="910" y="1170" as="targetPoint" />
            <Array as="points">
              <mxPoint x="920" y="1160" />
            </Array>
          </mxGeometry>
        </mxCell>
        <mxCell id="uUJFxHH4b_m9CaUNY9jW-232" value="" style="endArrow=none;html=1;rounded=0;strokeWidth=5;" edge="1" parent="1">
          <mxGeometry width="50" height="50" relative="1" as="geometry">
            <mxPoint x="752" y="1100" as="sourcePoint" />
            <mxPoint x="740" y="1113" as="targetPoint" />
            <Array as="points">
              <mxPoint x="740" y="1100" />
            </Array>
          </mxGeometry>
        </mxCell>
        <mxCell id="uUJFxHH4b_m9CaUNY9jW-234" value="" style="ellipse;whiteSpace=wrap;html=1;strokeWidth=5;" vertex="1" parent="1">
          <mxGeometry x="910" y="1030" width="20" height="20" as="geometry" />
        </mxCell>
        <mxCell id="uUJFxHH4b_m9CaUNY9jW-235" value="&lt;font style=&quot;font-size: 24px;&quot;&gt;&lt;b&gt;(B)&lt;/b&gt;&lt;/font&gt;" style="text;html=1;strokeColor=none;fillColor=none;align=center;verticalAlign=middle;whiteSpace=wrap;rounded=0;" vertex="1" parent="1">
          <mxGeometry x="560" y="1040" width="40" height="40" as="geometry" />
        </mxCell>
        <mxCell id="uUJFxHH4b_m9CaUNY9jW-236" value="&lt;font style=&quot;font-size: 24px;&quot;&gt;\((1, 3)\)&lt;br&gt;\((1, 2)\) and \((2, 3)\)&lt;br&gt;&lt;/font&gt;" style="text;html=1;strokeColor=none;fillColor=none;align=center;verticalAlign=middle;whiteSpace=wrap;rounded=0;" vertex="1" parent="1">
          <mxGeometry x="160" y="1320" width="240" height="80" as="geometry" />
        </mxCell>
        <mxCell id="uUJFxHH4b_m9CaUNY9jW-237" value="&lt;font style=&quot;font-size: 24px;&quot;&gt;\((1, 4)\)&lt;br&gt;\((1, 2)\) and \((2, 4)\)&lt;br&gt;&lt;/font&gt;" style="text;html=1;strokeColor=none;fillColor=none;align=center;verticalAlign=middle;whiteSpace=wrap;rounded=0;" vertex="1" parent="1">
          <mxGeometry x="680" y="1320" width="240" height="80" as="geometry" />
        </mxCell>
        <mxCell id="uUJFxHH4b_m9CaUNY9jW-238" style="rounded=0;orthogonalLoop=1;jettySize=auto;html=1;endArrow=none;endFill=0;strokeWidth=5;strokeColor=#CCCC00;" edge="1" source="uUJFxHH4b_m9CaUNY9jW-247" target="uUJFxHH4b_m9CaUNY9jW-248" parent="1">
          <mxGeometry relative="1" as="geometry" />
        </mxCell>
        <mxCell id="uUJFxHH4b_m9CaUNY9jW-240" style="rounded=0;orthogonalLoop=1;jettySize=auto;html=1;endArrow=none;endFill=0;strokeWidth=5;strokeColor=#CCCC00;" edge="1" source="uUJFxHH4b_m9CaUNY9jW-249" target="uUJFxHH4b_m9CaUNY9jW-253" parent="1">
          <mxGeometry relative="1" as="geometry">
            <mxPoint x="338" y="1884" as="sourcePoint" />
            <mxPoint x="482" y="1776" as="targetPoint" />
          </mxGeometry>
        </mxCell>
        <mxCell id="uUJFxHH4b_m9CaUNY9jW-241" value="" style="endArrow=none;html=1;rounded=0;strokeWidth=5;" edge="1" parent="1">
          <mxGeometry width="50" height="50" relative="1" as="geometry">
            <mxPoint x="270" y="1750" as="sourcePoint" />
            <mxPoint x="270" y="1770" as="targetPoint" />
            <Array as="points">
              <mxPoint x="280" y="1760" />
            </Array>
          </mxGeometry>
        </mxCell>
        <mxCell id="uUJFxHH4b_m9CaUNY9jW-242" value="&lt;font style=&quot;font-size: 24px;&quot;&gt;1&lt;/font&gt;" style="text;html=1;strokeColor=none;fillColor=none;align=center;verticalAlign=middle;whiteSpace=wrap;rounded=0;" vertex="1" parent="1">
          <mxGeometry x="120" y="1760" width="40" height="40" as="geometry" />
        </mxCell>
        <mxCell id="uUJFxHH4b_m9CaUNY9jW-243" style="rounded=0;orthogonalLoop=1;jettySize=auto;html=1;endArrow=none;endFill=0;strokeWidth=5;strokeColor=#CCCC00;" edge="1" source="uUJFxHH4b_m9CaUNY9jW-249" target="uUJFxHH4b_m9CaUNY9jW-248" parent="1">
          <mxGeometry relative="1" as="geometry">
            <mxPoint x="177" y="1763" as="sourcePoint" />
            <mxPoint x="403" y="1537" as="targetPoint" />
          </mxGeometry>
        </mxCell>
        <mxCell id="uUJFxHH4b_m9CaUNY9jW-244" value="&lt;font style=&quot;font-size: 24px;&quot;&gt;2&lt;/font&gt;" style="text;html=1;strokeColor=none;fillColor=none;align=center;verticalAlign=middle;whiteSpace=wrap;rounded=0;" vertex="1" parent="1">
          <mxGeometry x="400" y="1760" width="40" height="40" as="geometry" />
        </mxCell>
        <mxCell id="uUJFxHH4b_m9CaUNY9jW-245" value="&lt;font style=&quot;font-size: 24px;&quot;&gt;4&lt;/font&gt;" style="text;html=1;strokeColor=none;fillColor=none;align=center;verticalAlign=middle;whiteSpace=wrap;rounded=0;" vertex="1" parent="1">
          <mxGeometry x="400" y="1480" width="40" height="40" as="geometry" />
        </mxCell>
        <mxCell id="uUJFxHH4b_m9CaUNY9jW-246" value="&lt;font style=&quot;font-size: 24px;&quot;&gt;3&lt;/font&gt;" style="text;html=1;strokeColor=none;fillColor=none;align=center;verticalAlign=middle;whiteSpace=wrap;rounded=0;" vertex="1" parent="1">
          <mxGeometry x="120" y="1480" width="40" height="40" as="geometry" />
        </mxCell>
        <mxCell id="uUJFxHH4b_m9CaUNY9jW-247" value="" style="ellipse;whiteSpace=wrap;html=1;strokeWidth=5;" vertex="1" parent="1">
          <mxGeometry x="150" y="1750" width="20" height="20" as="geometry" />
        </mxCell>
        <mxCell id="uUJFxHH4b_m9CaUNY9jW-248" value="" style="ellipse;whiteSpace=wrap;html=1;strokeWidth=5;fillColor=default;" vertex="1" parent="1">
          <mxGeometry x="390" y="1750" width="20" height="20" as="geometry" />
        </mxCell>
        <mxCell id="uUJFxHH4b_m9CaUNY9jW-249" value="" style="ellipse;whiteSpace=wrap;html=1;strokeWidth=5;" vertex="1" parent="1">
          <mxGeometry x="150" y="1510" width="20" height="20" as="geometry" />
        </mxCell>
        <mxCell id="uUJFxHH4b_m9CaUNY9jW-250" value="" style="endArrow=none;html=1;rounded=0;strokeWidth=5;" edge="1" parent="1">
          <mxGeometry width="50" height="50" relative="1" as="geometry">
            <mxPoint x="270" y="1510" as="sourcePoint" />
            <mxPoint x="270" y="1530" as="targetPoint" />
            <Array as="points">
              <mxPoint x="280" y="1520" />
            </Array>
          </mxGeometry>
        </mxCell>
        <mxCell id="uUJFxHH4b_m9CaUNY9jW-252" value="" style="endArrow=none;html=1;rounded=0;strokeWidth=5;" edge="1" parent="1">
          <mxGeometry width="50" height="50" relative="1" as="geometry">
            <mxPoint x="232" y="1580" as="sourcePoint" />
            <mxPoint x="220" y="1593" as="targetPoint" />
            <Array as="points">
              <mxPoint x="220" y="1580" />
            </Array>
          </mxGeometry>
        </mxCell>
        <mxCell id="uUJFxHH4b_m9CaUNY9jW-253" value="" style="ellipse;whiteSpace=wrap;html=1;strokeWidth=5;" vertex="1" parent="1">
          <mxGeometry x="390" y="1510" width="20" height="20" as="geometry" />
        </mxCell>
        <mxCell id="uUJFxHH4b_m9CaUNY9jW-254" value="&lt;font style=&quot;font-size: 24px;&quot;&gt;&lt;b&gt;(C)&lt;/b&gt;&lt;/font&gt;" style="text;html=1;strokeColor=none;fillColor=none;align=center;verticalAlign=middle;whiteSpace=wrap;rounded=0;" vertex="1" parent="1">
          <mxGeometry x="40" y="1520" width="40" height="40" as="geometry" />
        </mxCell>
        <mxCell id="uUJFxHH4b_m9CaUNY9jW-255" value="&lt;font style=&quot;font-size: 24px;&quot;&gt;\((2, 4)\)&lt;br&gt;\((2,3\) and \((3, 4)\)&lt;br&gt;&lt;/font&gt;" style="text;html=1;strokeColor=none;fillColor=none;align=center;verticalAlign=middle;whiteSpace=wrap;rounded=0;" vertex="1" parent="1">
          <mxGeometry x="160" y="1800" width="240" height="80" as="geometry" />
        </mxCell>
        <mxCell id="uUJFxHH4b_m9CaUNY9jW-257" style="rounded=0;orthogonalLoop=1;jettySize=auto;html=1;endArrow=none;endFill=0;strokeWidth=5;strokeColor=#CCCC00;" edge="1" source="uUJFxHH4b_m9CaUNY9jW-265" target="uUJFxHH4b_m9CaUNY9jW-266" parent="1">
          <mxGeometry relative="1" as="geometry" />
        </mxCell>
        <mxCell id="uUJFxHH4b_m9CaUNY9jW-258" style="rounded=0;orthogonalLoop=1;jettySize=auto;html=1;endArrow=none;endFill=0;strokeWidth=5;strokeColor=#CCCC00;" edge="1" source="uUJFxHH4b_m9CaUNY9jW-267" target="uUJFxHH4b_m9CaUNY9jW-270" parent="1">
          <mxGeometry relative="1" as="geometry">
            <mxPoint x="338" y="2404" as="sourcePoint" />
            <mxPoint x="482" y="2296" as="targetPoint" />
          </mxGeometry>
        </mxCell>
        <mxCell id="uUJFxHH4b_m9CaUNY9jW-259" value="" style="endArrow=none;html=1;rounded=0;strokeWidth=5;" edge="1" parent="1">
          <mxGeometry width="50" height="50" relative="1" as="geometry">
            <mxPoint x="270" y="2270" as="sourcePoint" />
            <mxPoint x="270" y="2290" as="targetPoint" />
            <Array as="points">
              <mxPoint x="280" y="2280" />
            </Array>
          </mxGeometry>
        </mxCell>
        <mxCell id="uUJFxHH4b_m9CaUNY9jW-260" value="&lt;font style=&quot;font-size: 24px;&quot;&gt;1&lt;/font&gt;" style="text;html=1;strokeColor=none;fillColor=none;align=center;verticalAlign=middle;whiteSpace=wrap;rounded=0;" vertex="1" parent="1">
          <mxGeometry x="120" y="2280" width="40" height="40" as="geometry" />
        </mxCell>
        <mxCell id="uUJFxHH4b_m9CaUNY9jW-261" style="rounded=0;orthogonalLoop=1;jettySize=auto;html=1;endArrow=none;endFill=0;strokeWidth=5;strokeColor=#CCCC00;" edge="1" source="uUJFxHH4b_m9CaUNY9jW-267" target="uUJFxHH4b_m9CaUNY9jW-266" parent="1">
          <mxGeometry relative="1" as="geometry">
            <mxPoint x="177" y="2283" as="sourcePoint" />
            <mxPoint x="403" y="2057" as="targetPoint" />
          </mxGeometry>
        </mxCell>
        <mxCell id="uUJFxHH4b_m9CaUNY9jW-262" value="&lt;font style=&quot;font-size: 24px;&quot;&gt;2&lt;/font&gt;" style="text;html=1;strokeColor=none;fillColor=none;align=center;verticalAlign=middle;whiteSpace=wrap;rounded=0;" vertex="1" parent="1">
          <mxGeometry x="400" y="2280" width="40" height="40" as="geometry" />
        </mxCell>
        <mxCell id="uUJFxHH4b_m9CaUNY9jW-263" value="&lt;font style=&quot;font-size: 24px;&quot;&gt;4&lt;/font&gt;" style="text;html=1;strokeColor=none;fillColor=none;align=center;verticalAlign=middle;whiteSpace=wrap;rounded=0;" vertex="1" parent="1">
          <mxGeometry x="400" y="2000" width="40" height="40" as="geometry" />
        </mxCell>
        <mxCell id="uUJFxHH4b_m9CaUNY9jW-264" value="&lt;font style=&quot;font-size: 24px;&quot;&gt;3&lt;/font&gt;" style="text;html=1;strokeColor=none;fillColor=none;align=center;verticalAlign=middle;whiteSpace=wrap;rounded=0;" vertex="1" parent="1">
          <mxGeometry x="120" y="2000" width="40" height="40" as="geometry" />
        </mxCell>
        <mxCell id="uUJFxHH4b_m9CaUNY9jW-265" value="" style="ellipse;whiteSpace=wrap;html=1;strokeWidth=5;" vertex="1" parent="1">
          <mxGeometry x="150" y="2270" width="20" height="20" as="geometry" />
        </mxCell>
        <mxCell id="uUJFxHH4b_m9CaUNY9jW-266" value="" style="ellipse;whiteSpace=wrap;html=1;strokeWidth=5;fillColor=default;" vertex="1" parent="1">
          <mxGeometry x="390" y="2270" width="20" height="20" as="geometry" />
        </mxCell>
        <mxCell id="uUJFxHH4b_m9CaUNY9jW-267" value="" style="ellipse;whiteSpace=wrap;html=1;strokeWidth=5;" vertex="1" parent="1">
          <mxGeometry x="150" y="2030" width="20" height="20" as="geometry" />
        </mxCell>
        <mxCell id="uUJFxHH4b_m9CaUNY9jW-268" value="" style="endArrow=none;html=1;rounded=0;strokeWidth=5;" edge="1" parent="1">
          <mxGeometry width="50" height="50" relative="1" as="geometry">
            <mxPoint x="270" y="2030" as="sourcePoint" />
            <mxPoint x="270" y="2050" as="targetPoint" />
            <Array as="points">
              <mxPoint x="280" y="2040" />
            </Array>
          </mxGeometry>
        </mxCell>
        <mxCell id="uUJFxHH4b_m9CaUNY9jW-269" value="" style="endArrow=none;html=1;rounded=0;strokeWidth=5;" edge="1" parent="1">
          <mxGeometry width="50" height="50" relative="1" as="geometry">
            <mxPoint x="232" y="2100" as="sourcePoint" />
            <mxPoint x="220" y="2113" as="targetPoint" />
            <Array as="points">
              <mxPoint x="220" y="2100" />
            </Array>
          </mxGeometry>
        </mxCell>
        <mxCell id="uUJFxHH4b_m9CaUNY9jW-270" value="" style="ellipse;whiteSpace=wrap;html=1;strokeWidth=5;" vertex="1" parent="1">
          <mxGeometry x="390" y="2030" width="20" height="20" as="geometry" />
        </mxCell>
        <mxCell id="uUJFxHH4b_m9CaUNY9jW-276" style="rounded=0;orthogonalLoop=1;jettySize=auto;html=1;endArrow=none;endFill=0;strokeWidth=5;strokeColor=#CCCC00;" edge="1" parent="1" source="uUJFxHH4b_m9CaUNY9jW-274" target="uUJFxHH4b_m9CaUNY9jW-275">
          <mxGeometry relative="1" as="geometry">
            <mxPoint x="177" y="2057" as="sourcePoint" />
            <mxPoint x="403" y="2283" as="targetPoint" />
          </mxGeometry>
        </mxCell>
        <mxCell id="uUJFxHH4b_m9CaUNY9jW-277" style="rounded=0;orthogonalLoop=1;jettySize=auto;html=1;endArrow=none;endFill=0;strokeWidth=5;strokeColor=#CCCC00;" edge="1" parent="1" source="uUJFxHH4b_m9CaUNY9jW-273" target="uUJFxHH4b_m9CaUNY9jW-274">
          <mxGeometry relative="1" as="geometry">
            <mxPoint x="730" y="2150" as="sourcePoint" />
            <mxPoint x="710" y="2210" as="targetPoint" />
          </mxGeometry>
        </mxCell>
        <mxCell id="uUJFxHH4b_m9CaUNY9jW-278" style="rounded=0;orthogonalLoop=1;jettySize=auto;html=1;endArrow=none;endFill=0;strokeWidth=5;strokeColor=#CCCC00;" edge="1" parent="1" source="uUJFxHH4b_m9CaUNY9jW-272" target="uUJFxHH4b_m9CaUNY9jW-273">
          <mxGeometry relative="1" as="geometry">
            <mxPoint x="650" y="2100" as="sourcePoint" />
            <mxPoint x="740" y="2050" as="targetPoint" />
          </mxGeometry>
        </mxCell>
        <mxCell id="uUJFxHH4b_m9CaUNY9jW-272" value="" style="ellipse;whiteSpace=wrap;html=1;strokeWidth=5;" vertex="1" parent="1">
          <mxGeometry x="630" y="1910" width="20" height="20" as="geometry" />
        </mxCell>
        <mxCell id="uUJFxHH4b_m9CaUNY9jW-273" value="" style="ellipse;whiteSpace=wrap;html=1;strokeWidth=5;" vertex="1" parent="1">
          <mxGeometry x="630" y="2070" width="20" height="20" as="geometry" />
        </mxCell>
        <mxCell id="uUJFxHH4b_m9CaUNY9jW-274" value="" style="ellipse;whiteSpace=wrap;html=1;strokeWidth=5;" vertex="1" parent="1">
          <mxGeometry x="630" y="2230" width="20" height="20" as="geometry" />
        </mxCell>
        <mxCell id="uUJFxHH4b_m9CaUNY9jW-275" value="" style="ellipse;whiteSpace=wrap;html=1;strokeWidth=5;" vertex="1" parent="1">
          <mxGeometry x="630" y="2390" width="20" height="20" as="geometry" />
        </mxCell>
        <mxCell id="uUJFxHH4b_m9CaUNY9jW-280" value="&lt;font style=&quot;font-size: 24px;&quot;&gt;4&lt;/font&gt;" style="text;html=1;strokeColor=none;fillColor=none;align=center;verticalAlign=middle;whiteSpace=wrap;rounded=0;" vertex="1" parent="1">
          <mxGeometry x="650" y="1900" width="40" height="40" as="geometry" />
        </mxCell>
        <mxCell id="uUJFxHH4b_m9CaUNY9jW-281" value="&lt;font style=&quot;font-size: 24px;&quot;&gt;3&lt;/font&gt;" style="text;html=1;strokeColor=none;fillColor=none;align=center;verticalAlign=middle;whiteSpace=wrap;rounded=0;" vertex="1" parent="1">
          <mxGeometry x="650" y="2060" width="40" height="40" as="geometry" />
        </mxCell>
        <mxCell id="uUJFxHH4b_m9CaUNY9jW-282" value="&lt;font style=&quot;font-size: 24px;&quot;&gt;2&lt;/font&gt;" style="text;html=1;strokeColor=none;fillColor=none;align=center;verticalAlign=middle;whiteSpace=wrap;rounded=0;" vertex="1" parent="1">
          <mxGeometry x="650" y="2220" width="40" height="40" as="geometry" />
        </mxCell>
        <mxCell id="uUJFxHH4b_m9CaUNY9jW-283" value="&lt;font style=&quot;font-size: 24px;&quot;&gt;1&lt;/font&gt;" style="text;html=1;strokeColor=none;fillColor=none;align=center;verticalAlign=middle;whiteSpace=wrap;rounded=0;" vertex="1" parent="1">
          <mxGeometry x="650" y="2380" width="40" height="40" as="geometry" />
        </mxCell>
      </root>
    </mxGraphModel>
  </diagram>
</mxfile>
